<svg width="111" height="30" viewBox="0 0 111 30" fill="none" xmlns="http://www.w3.org/2000/svg">
<g clip-path="url(#clip0_3212_473)">
<path fill-rule="evenodd" clip-rule="evenodd" d="M15.9688 30C24.253 30 30.9688 23.2842 30.9688 15C30.9688 6.7158 24.253 0 15.9688 0C7.68455 0 0.96875 6.7158 0.96875 15C0.96875 23.2842 7.68455 30 15.9688 30ZM22.5618 9.5832C22.6777 8.2692 21.2899 8.8104 21.2899 8.8104C20.2654 9.2346 19.2088 9.6654 18.1408 10.101C14.8288 11.4519 11.4075 12.8475 8.49305 14.2212C6.91265 14.8008 7.83785 15.3804 7.83785 15.3804L10.3432 16.1535C11.4997 16.5015 12.1162 16.1148 12.1162 16.1148L17.5126 12.4434C19.4398 11.1294 18.9771 12.2115 18.5146 12.6753L14.4676 16.5399C13.8507 17.0811 14.1592 17.5449 14.4289 17.7768C15.1939 18.4515 17.0749 19.686 17.896 20.2248C18.1096 20.3649 18.2515 20.4582 18.2836 20.4822C18.4762 20.6367 19.5169 21.3324 20.2108 21.1779C20.9046 21.0231 20.9818 20.1342 20.9818 20.1342L21.9067 14.0664C22.0452 13.0131 22.2045 12.0006 22.3318 11.1918C22.4517 10.428 22.5432 9.8463 22.5618 9.5832Z" fill="#F50E30"/>
</g>
<g clip-path="url(#clip1_3212_473)">
<path fill-rule="evenodd" clip-rule="evenodd" d="M57.9688 30C66.253 30 72.9688 23.2843 72.9688 15C72.9688 6.71574 66.253 0 57.9688 0C49.6845 0 42.9688 6.71574 42.9688 15C42.9688 23.2843 49.6845 30 57.9688 30ZM63.8975 8.69784C62.3539 7.1523 60.3009 6.30081 58.1137 6.3C53.6072 6.3 49.9391 9.96756 49.9375 14.4757C49.937 15.9167 50.3134 17.3234 51.0288 18.5631L49.8688 22.8L54.2031 21.6632C55.3972 22.3147 56.742 22.6579 58.1102 22.6584H58.1134C62.6196 22.6584 66.2877 18.9903 66.2896 14.4825C66.291 12.2975 65.4414 10.2434 63.8975 8.69784ZM61.8413 16.1876C61.637 16.0853 60.6327 15.5912 60.4453 15.5231C60.2581 15.4548 60.1217 15.4207 59.9856 15.6253C59.8495 15.83 59.458 16.2899 59.3387 16.4264C59.2195 16.5628 59.1003 16.5797 58.8962 16.4774C58.8628 16.4606 58.8172 16.4409 58.761 16.4165C58.4733 16.2917 57.9059 16.0457 57.2533 15.4633C56.646 14.9215 56.2359 14.2525 56.1167 14.0482C55.9975 13.8436 56.1039 13.7331 56.2062 13.6313C56.2675 13.5701 56.3379 13.4843 56.4084 13.3986C56.4435 13.3558 56.4786 13.313 56.5126 13.2734C56.5991 13.1723 56.6368 13.0955 56.6878 12.9915C56.697 12.9728 56.7065 12.9533 56.7169 12.9326C56.7851 12.7962 56.751 12.677 56.7 12.5747C56.6659 12.5063 56.4723 12.035 56.2967 11.6077C56.2094 11.3952 56.1266 11.1936 56.0701 11.0578C55.9236 10.7061 55.7752 10.707 55.6561 10.7077C55.6403 10.7078 55.625 10.7079 55.6103 10.7072C55.4914 10.7012 55.355 10.7001 55.2188 10.7001C55.0827 10.7001 54.8614 10.7511 54.674 10.9557C54.6619 10.9689 54.6484 10.9833 54.6338 10.999C54.4209 11.2263 53.959 11.7194 53.959 12.6601C53.959 13.6632 54.6874 14.6324 54.7925 14.7723L54.7933 14.7733C54.7999 14.7822 54.8118 14.7993 54.8287 14.8236C55.0726 15.1735 56.3672 17.0307 58.2832 17.8581C58.7707 18.0687 59.151 18.1943 59.4478 18.2884C59.9373 18.4439 60.3826 18.422 60.7348 18.3694C61.1273 18.3107 61.9434 17.8753 62.1136 17.3981C62.2838 16.921 62.2838 16.5118 62.2328 16.4266C62.1917 16.3577 62.0951 16.311 61.952 16.2418C61.9177 16.2253 61.8808 16.2074 61.8413 16.1876Z" fill="#F50E30"/>
</g>
<circle cx="95.9688" cy="15" r="15" fill="#F50E30"/>
<g clip-path="url(#clip2_3212_473)">
<path d="M104.267 9.75345C103.617 8.98107 102.418 8.66602 100.127 8.66602H91.8105C89.4671 8.66602 88.2472 9.0014 87.5999 9.82371C86.9688 10.6255 86.9688 11.8068 86.9688 13.4418V16.558C86.9688 19.7255 87.7176 21.3337 91.8105 21.3337H100.127C102.114 21.3337 103.215 21.0557 103.927 20.3741C104.657 19.6751 104.969 18.5338 104.969 16.558V13.4418C104.969 11.7175 104.92 10.5292 104.267 9.75345ZM98.5248 15.4301L94.7484 17.4038C94.664 17.4479 94.5717 17.4698 94.4795 17.4698C94.3751 17.4698 94.2709 17.4417 94.1786 17.3859C94.0049 17.2806 93.8988 17.0923 93.8988 16.8892V12.9545C93.8988 12.7517 94.0046 12.5636 94.178 12.4583C94.3514 12.3529 94.5671 12.3457 94.7471 12.4392L98.5235 14.4002C98.7156 14.4999 98.8363 14.6983 98.8366 14.9147C98.8368 15.1313 98.7167 15.3299 98.5248 15.4301Z" fill="white"/>
</g>
<defs>
<clipPath id="clip0_3212_473">
<rect width="30" height="30" fill="white" transform="translate(0.96875)"/>
</clipPath>
<clipPath id="clip1_3212_473">
<rect width="30" height="30" fill="white" transform="translate(42.9688)"/>
</clipPath>
<clipPath id="clip2_3212_473">
<rect width="18" height="18" fill="white" transform="translate(86.9688 6)"/>
</clipPath>
</defs>
</svg>
